<?xml version="1.0" encoding="utf-8"?>
<!-- Generator: Adobe Illustrator 21.0.2, SVG Export Plug-In . SVG Version: 6.00 Build 0)  -->
<svg version="1.1" id="Layer_1" xmlns="http://www.w3.org/2000/svg" xmlns:xlink="http://www.w3.org/1999/xlink" x="0px" y="0px"
	 viewBox="0 0 130 90" style="enable-background:new 0 0 130 90;" xml:space="preserve">
<style type="text/css">
	.st0{fill:url(#SVGID_1_);}
	.st1{fill:url(#SVGID_2_);}
	.st2{fill:url(#SVGID_3_);}
	.st3{fill:#231F1F;}
</style>
<g>
	<g transform="matrix(.569 0 0 .569 199.451 -82.735)">
		
			<linearGradient id="SVGID_1_" gradientUnits="userSpaceOnUse" x1="-20618.6367" y1="-18101.2227" x2="-20567.1484" y2="-18131.6484" gradientTransform="matrix(7.021460e-02 0 0 7.021460e-02 1184.5763 1530.5916)">
			<stop  offset="0" style="stop-color:#909CA9"/>
			<stop  offset="1" style="stop-color:#EDEDEE"/>
		</linearGradient>
		<path class="st0" d="M-225.8,221.5l-17.6,5.7l-15.3,6.7l-4.3,1.1c-1.1,1-2.2,2.1-3.5,3.1c-1.4,1.2-2.6,2.2-3.6,3
			c-1.1,0.9-2.7,2.4-3.5,3.5c-1.2,1.5-2.2,3.1-2.6,4.4c-0.7,2.2-0.4,4.5,1,6.6c1.8,2.7,5.4,5.4,9.6,7.2c2.1,0.9,5.7,2.2,8.4,2.8
			c4.5,1.1,13.2,2.4,18,2.6c1,0,2.3,0,2.3,0c0.1-0.1,0.9-1.5,1.7-3.3c2.9-6,5.1-11.7,6.2-16.5c0.7-2.9,1.2-6.8,1.6-11.4
			c0.1-1.3,0.1-5.6,0.1-7.1c-0.1-2.4-0.3-4.3-0.7-6.2c-0.1-0.3-0.1-0.5,0-0.5c0.1,0,0.2-0.1,2.4-0.7L-225.8,221.5L-225.8,221.5
			L-225.8,221.5L-225.8,221.5z M-229.8,223.9c0.2,0,0.6,4.1,0.7,6.7c0,0.5,0,0.9,0,0.9c-0.1,0-2.2-1.3-3.8-2.2
			c-1.3-0.8-3.9-2.5-4.3-2.8c-0.1-0.1-0.1-0.1,1-0.5C-234.3,225.3-229.9,223.9-229.8,223.9z M-238.7,226.8c0.1,0,0.4,0.2,1.2,0.6
			c2.7,1.7,6.5,3.8,8,4.5c0.5,0.2,0.5,0.1-0.6,0.9c-2.4,1.6-5.4,3.3-9.1,4.9c-0.7,0.3-1.2,0.5-1.2,0.5c0,0,0.1-0.3,0.2-0.7
			c0.9-3.3,1.4-6.7,1.4-9.3C-238.8,226.8-238.8,226.8-238.7,226.8C-238.8,226.8-238.7,226.8-238.7,226.8L-238.7,226.8z
			 M-240.6,227.5c0.1,0.1,0,3.1-0.1,3.9c-0.2,1.9-0.6,3.7-1.2,5.8c-0.1,0.5-0.3,0.9-0.3,0.9c-0.1,0.1-1.9-1.7-2.5-2.4
			c-1-1.2-1.8-2.4-2.4-3.6c-0.3-0.6-0.8-1.8-0.7-1.8C-247.6,230.2-240.6,227.5-240.6,227.5L-240.6,227.5z M-249.3,230.9
			C-249.2,230.9-249.2,230.9-249.3,230.9c0.1,0,0.2,0.3,0.2,0.5c0.4,1.2,1.4,2.9,2.2,3.9c0.9,1.2,2.1,2.5,3.1,3.3
			c0.3,0.3,0.6,0.5,0.7,0.6c0.1,0.1,0.1,0.1-2.1,0.9c-2.5,1-5.2,1.9-8.4,2.9c-0.7,0.2-1.5,0.5-2.2,0.7c-0.1,0-0.1,0,0.3-0.6
			c1.6-2.4,3.9-7.2,5.2-10.6c0.2-0.6,0.5-1.2,0.5-1.3c0.1-0.2,0.1-0.3,0.3-0.3C-249.4,231-249.3,230.9-249.3,230.9L-249.3,230.9z
			 M-251.9,232c0,0-0.6,1.4-1.3,2.7c-1.3,2.5-2.7,5-4.6,8c-0.3,0.5-0.6,1-0.7,1c-0.1,0.1-0.1,0.1-0.3-0.3c-0.5-0.9-0.8-2-1-3.1
			c-0.2-1-0.2-2.8,0.1-4c0.2-0.8,0.2-0.8,0.6-1C-257.5,234.6-252,232-251.9,232L-251.9,232z M-229,233v0.6c0,3-0.3,7-0.8,10
			c-0.1,0.5-0.1,0.9-0.2,1c0,0-0.4-0.1-0.8-0.2c-2-0.6-4.2-1.5-6.1-2.6c-1.3-0.7-3.2-1.9-3.1-1.9c0,0,0.6-0.3,1.2-0.7
			c2.6-1.4,5.1-2.8,7.3-4.3c0.8-0.5,2-1.4,2.3-1.7L-229,233L-229,233z M-261.9,236.9c0.1,0,0,0.1,0,0.6c-0.1,0.3-0.1,1-0.1,1.4
			c-0.1,1.9,0.2,3.4,1.2,5.3c0.3,0.5,0.5,1,0.5,1c-0.1,0.1-8.9,2.7-11.6,3.4c-0.8,0.2-1.5,0.4-1.6,0.4c-0.1,0-0.1,0-0.1-0.2
			c0.3-2,1.8-4.5,3.9-6.7c1.4-1.4,2.5-2.3,4.4-3.3C-264.2,238.1-262.1,237-261.9,236.9C-262,236.9-262,236.9-261.9,236.9
			L-261.9,236.9z M-241.2,240.6c0,0,0.3,0.2,0.7,0.4c2.8,1.6,6.8,3.2,10.2,4l0.3,0.1l-0.4,0.2c-1.8,1-7.6,3.4-13.5,5.6
			c-0.9,0.3-1.7,0.6-1.9,0.7c-0.2,0.1-0.3,0.1-0.3,0.1c0,0,0.2-0.5,0.5-1c1.7-3.1,3.3-6.9,4.2-9.5
			C-241.3,240.8-241.2,240.6-241.2,240.6L-241.2,240.6z M-243.3,241.3c0,0-0.1,0.3-0.2,0.6c-1.2,2.8-2.7,5.9-4.6,9.3
			c-0.5,0.9-0.9,1.6-0.9,1.6c0,0-0.4-0.2-0.9-0.5c-2.8-1.7-5.3-3.9-6.9-5.9l-0.2-0.3l1.2-0.3c4.3-1.2,8-2.5,11.7-4
			C-243.8,241.5-243.3,241.3-243.3,241.3z M-230.2,245.9C-230.2,245.9-230.2,245.9-230.2,245.9c0,0.3-0.7,3-1.2,5
			c-0.5,1.7-0.9,3-1.6,5.3c-0.3,1-0.6,1.8-0.6,1.8c0,0-0.1,0-0.2,0c-3.9-0.7-7.5-1.7-10.8-3c-0.9-0.4-2.3-1-2.3-1
			c0,0,0.8-0.4,1.8-0.8c6-2.6,12.3-5.6,14.5-6.9C-230.5,246-230.3,245.9-230.2,245.9L-230.2,245.9z M-260.5,246.9c0,0-1.7,2.5-4,5.8
			c-0.8,1.2-1.8,2.5-2.1,3c-0.4,0.5-0.9,1.3-1.2,1.8l-0.6,0.9l-0.6-0.5c-0.7-0.6-1.9-1.8-2.5-2.5c-1.1-1.4-1.9-2.9-2.2-4.3
			c-0.1-0.6-0.1-1,0-1c0.2-0.1,3.7-0.9,7.1-1.7c1.8-0.4,4-0.9,4.8-1.1C-261.1,247.1-260.5,246.9-260.5,246.9L-260.5,246.9z
			 M-258.8,247.6l0.4,0.5c1.9,2.1,3.9,3.7,6.2,5.1c0.4,0.2,0.7,0.5,0.7,0.5c-0.1,0.1-8.2,2.9-12,4.2c-2.1,0.7-3.9,1.3-3.9,1.3
			c0,0-0.1-0.1-0.3-0.2l-0.2-0.2l0.4-0.6c1.2-1.8,2.8-3.8,6.2-7.9L-258.8,247.6L-258.8,247.6z M-248.2,255.1c0,0,0.6,0.2,1.3,0.5
			c1.7,0.7,3.1,1.1,4.9,1.5c2.3,0.6,5.5,1.1,7.5,1.3c0.3,0,0.5,0.1,0.4,0.1c-0.1,0.1-2,0.7-3.5,1.2c-2.3,0.7-9.3,2.8-14.9,4.4
			c-1,0.3-2,0.6-2,0.6c-0.1,0-0.6-0.1-0.6-0.1c0,0,0.3-0.4,0.7-0.9c1.9-2.3,3.8-4.8,5.4-7.3C-248.6,255.7-248.2,255.2-248.2,255.1
			L-248.2,255.1z M-250.5,255.2c0,0-0.9,1.5-2.6,4.1c-0.7,1.1-1.5,2.4-1.8,2.8c-0.3,0.4-0.7,1.1-0.9,1.5l-0.4,0.7l-0.2-0.1
			c-0.5-0.1-3.8-1.3-4.7-1.7c-1.1-0.4-2.2-1-3.1-1.4c-1.1-0.6-2.4-1.4-2.3-1.4c0,0,1.8-0.5,4-1.1c5.8-1.6,9-2.5,11.2-3.2
			C-250.9,255.3-250.6,255.2-250.5,255.2L-250.5,255.2z M-234,259.1L-234,259.1c0.1,0.1-2.1,6.1-2.9,8c-0.2,0.4-0.2,0.5-0.3,0.5
			c-0.2,0-3.3-0.5-5.2-0.7c-3.3-0.5-8.9-1.5-10.3-1.8l-0.3-0.1l2-0.5c4.3-1,6.3-1.5,8.4-2.1c2.6-0.8,5.2-1.8,7.8-3
			C-234.4,259.2-234.1,259.1-234,259.1L-234,259.1z"/>
		
			<linearGradient id="SVGID_2_" gradientUnits="userSpaceOnUse" x1="-20616.6055" y1="-19108.9863" x2="-20575.1758" y2="-19108.9863" gradientTransform="matrix(7.021460e-02 0 0 7.021460e-02 1184.5763 1530.5916)">
			<stop  offset="0" style="stop-color:#939FAB"/>
			<stop  offset="1" style="stop-color:#DCDEE1"/>
		</linearGradient>
		<path class="st1" d="M-243.9,180.6c-0.3,0-5,1.7-8,2.9c-4.1,1.7-7.3,3.3-9.3,4.6c-0.7,0.5-1.6,1.4-1.8,1.8
			c-0.1,0.1-0.1,0.3-0.1,0.5l1.8,1.7l4.2,1.4l10.1,1.8l11.5,2l0.1-1c0,0-0.1,0-0.1,0l-1.5-0.2l-0.3-0.5c-1.6-2.8-3.3-6.2-4.3-8.5
			c-0.8-1.8-1.5-3.9-1.9-5.4C-243.7,180.6-243.7,180.6-243.9,180.6L-243.9,180.6L-243.9,180.6L-243.9,180.6z M-244.1,181.2
			L-244.1,181.2c0,0,0.1,0.4,0.1,0.8c0.2,1.9,0.6,3.7,1.3,5.6c0.5,1.5,0.5,1.4-0.1,1.2c-1.4-0.4-7.4-1.4-11.8-2
			c-0.7-0.1-1.3-0.2-1.3-0.2c-0.1-0.1,3.2-1.7,4.6-2.4C-249.5,183.4-244.5,181.3-244.1,181.2z M-256.9,187.2l0.5,0.2
			c2.8,1,9.9,2.3,13.8,2.6c0.4,0,0.8,0.1,0.8,0.1c0,0-0.4,0.2-0.8,0.4c-1.9,0.9-4,2.1-5.4,3c-0.4,0.3-0.8,0.5-0.9,0.5
			c-0.1,0-0.3-0.1-0.6-0.1l-0.5-0.1l-1.3-1.3c-2.3-2.3-4.2-4-4.9-4.7L-256.9,187.2z M-257.4,187.6l1.9,2.3c1,1.3,2.1,2.5,2.3,2.8
			c0.2,0.3,0.4,0.5,0.4,0.5c-0.1,0-2.7-0.5-4.1-0.8c-1.4-0.3-2-0.5-2.9-0.8l-0.7-0.2v-0.2c0-0.9,1.1-2.2,3.1-3.6L-257.4,187.6
			L-257.4,187.6z M-241.5,190.8c0.1,0,0.1,0.1,0.3,0.5c0.5,1,1.9,3.7,2.2,4.2c0.1,0.2,0.3,0.2-1.6-0.1c-4.5-0.7-6-1-6-1
			c0,0,0.1-0.1,0.3-0.2c1.4-0.8,2.8-1.8,4.1-2.8C-241.9,191.1-241.6,190.8-241.5,190.8C-241.6,190.8-241.5,190.8-241.5,190.8
			L-241.5,190.8z"/>
		
			<radialGradient id="SVGID_3_" cx="-3127.3008" cy="-10794.1553" r="55.0065" gradientTransform="matrix(-6.742650e-02 -1.012820e-02 2.048400e-02 -0.1349 -226.9684 -1275.0148)" gradientUnits="userSpaceOnUse">
			<stop  offset="0" style="stop-color:#EE352C"/>
			<stop  offset="1" style="stop-color:#A91D22"/>
		</radialGradient>
		<path class="st2" d="M-262.9,189.7c0,0-0.3,0.5,0,1.2c0.2,0.4,0.7,0.9,1.2,1.5c0,0,5.9,5.8,6.6,6.6c3.3,3.8,4.7,7.5,4.8,12.6
			c0.1,3.3-0.5,6.2-2.1,9.5c-2.8,6-8.6,12.7-17.6,20.1l1.3-0.4c0.8-0.6,2-1.3,4.7-2.8c6.3-3.4,13.3-6.6,21.9-9.8
			c12.4-4.7,32.9-10.1,44.5-11.9l1.2-0.2l-0.2-0.3c-1.1-1.6-1.8-2.7-2.7-3.8c-2.5-3.2-5.6-5.7-9.4-7.8c-5.2-2.9-11.9-5.2-20.5-6.9
			c-1.6-0.3-5.1-0.9-8-1.4c-6.1-0.9-10-1.6-14.3-2.3c-1.6-0.3-3.9-0.7-5.4-1c-0.8-0.2-2.3-0.5-3.5-0.9
			C-261.2,191.2-262.6,190.8-262.9,189.7L-262.9,189.7z M-259.5,193c0,0,0.2,0.1,0.5,0.2c0.5,0.2,1.2,0.4,1.9,0.6
			c0.6,0.2,1.2,0.3,1.8,0.5c0.8,0.2,1.5,0.4,1.5,0.4c0.1,0.1,1.4,4.4,1.9,6c0.2,0.6,0.3,1.2,0.3,1.2c0,0-0.2-0.2-0.3-0.5
			c-1.6-2.7-4-5.5-6.9-7.7C-259.2,193.3-259.5,193-259.5,193L-259.5,193z M-252.9,194.8c0.1,0,0.4,0,0.7,0.1
			c2.3,0.5,6.3,1.3,8.9,1.7c0.4,0.1,0.8,0.1,0.8,0.2c0,0-0.2,0.1-0.4,0.2c-0.4,0.2-2.2,1.3-2.8,1.7c-1.5,1-2.8,2-3.8,3
			c-0.4,0.4-0.7,0.7-0.7,0.7s-0.1-0.2-0.1-0.5c-0.5-1.8-1.5-4.6-2.4-6.5C-252.8,195.1-252.9,194.8-252.9,194.8
			C-252.9,194.8-252.9,194.8-252.9,194.8L-252.9,194.8z M-241.4,197c0.1,0,0.2,0.5,0.5,1.5c0.5,1.9,0.7,4.1,0.6,6.1
			c0,0.6-0.1,1.1-0.1,1.1l0,0.1l-0.7-0.2c-1.4-0.5-3.7-1.1-5.7-1.7c-1.1-0.3-2-0.6-2-0.6c0-0.1,1.6-1.7,2.4-2.4
			C-245.2,199.8-241.5,197-241.4,197L-241.4,197z M-240.5,197.2c0,0,5.5,0.9,8,1.4c1.8,0.4,4.5,0.9,4.7,1c0.1,0-0.2,0.2-1.1,0.6
			c-3.5,1.6-6.1,3-8.7,4.7c-0.7,0.5-1.2,0.8-1.3,0.8s0-0.4,0-0.8c0-2.5-0.5-5.1-1.4-7.2C-240.4,197.4-240.5,197.2-240.5,197.2z
			 M-226.4,199.9c0,0-0.1,1.1-0.3,1.8c-0.5,2-1.8,4.9-3.3,7.7c-0.3,0.5-0.5,0.9-0.6,0.9c0,0-0.4-0.2-0.8-0.4
			c-1.5-0.9-3.3-1.8-5.2-2.6c-0.5-0.2-1-0.4-1-0.4c-0.1-0.1,4.2-2.9,6.4-4.3C-229.4,201.5-226.4,199.9-226.4,199.9L-226.4,199.9z
			 M-225.4,200.1c0.1,0,2.5,0.7,3.8,1c3.1,0.9,6.7,2.2,9,3.3l1,0.4l-0.7,0.2c-5.7,1.3-10.6,2.8-15.3,4.7c-0.4,0.2-0.7,0.3-0.8,0.3
			c0,0,0.1-0.3,0.3-0.7c1.4-3,2.3-6.2,2.6-8.8C-225.5,200.3-225.4,200.1-225.4,200.1L-225.4,200.1z M-249.4,205.6
			c0,0,1.9,0.4,2.9,0.7c1.5,0.4,4.7,1.5,4.7,1.6c0,0-0.4,0.3-0.8,0.7c-1.7,1.4-3.4,3-5.4,4.9c-0.6,0.6-1.1,1-1.1,1c0,0,0-0.1,0-0.2
			c0.3-2.2,0.2-5.1-0.2-8C-249.4,206-249.5,205.6-249.4,205.6z M-210.6,205.7c0,0-0.9,1.4-1.4,2.2c-0.8,1.1-2,2.7-4.6,6
			c-1.4,1.8-3,3.7-3.5,4.4c-0.5,0.7-1,1.2-1,1.2c0,0-0.2-0.2-0.4-0.5c-1.5-2.2-3.3-4.2-5.4-5.9c-0.4-0.3-0.8-0.7-1-0.8
			c-0.1-0.1-0.3-0.2-0.3-0.2c0,0,2.3-1,4-1.7c3-1.2,7.1-2.7,10.2-3.6C-212.4,206.1-210.7,205.6-210.6,205.7L-210.6,205.7z
			 M-209.6,205.9c0.1,0,0.4,0.1,0.8,0.4c3.2,1.8,6.4,4.2,8.9,6.7c0.7,0.7,2.4,2.5,2.4,2.5c0,0-0.6,0.1-1.3,0.1
			c-5.6,0.4-12.8,1.6-19.6,3.3c-0.5,0.1-0.9,0.2-0.9,0.2c0,0,0.5-0.5,1.1-1.1c4-3.9,5.9-6.3,8.1-10.7
			C-209.9,206.5-209.7,206-209.6,205.9C-209.6,205.9-209.6,205.9-209.6,205.9L-209.6,205.9z M-239.2,209c0.2,0,1.9,0.9,3.2,1.5
			c1.2,0.6,3,1.6,3.1,1.6c0,0-0.6,0.3-1.4,0.7c-2.5,1.2-4.6,2.4-6.9,3.8c-0.6,0.4-1.2,0.7-1.2,0.7c-0.1,0,0-0.1,0.3-0.7
			c1.2-2.2,2.2-4.8,2.7-7.3C-239.3,209.1-239.2,209-239.2,209L-239.2,209z M-240.9,209.3c0,0-0.4,1.7-0.7,2.6
			c-0.5,1.7-1.5,3.8-2.4,5.4c-0.2,0.4-0.5,0.9-0.7,1.2l-0.3,0.5l-0.7-0.7c-0.9-0.8-1.6-1.4-2.5-1.8c-0.4-0.2-0.6-0.3-0.6-0.4
			c0-0.1,2.3-2.2,4-3.7C-243.6,211.4-241,209.2-240.9,209.3L-240.9,209.3z M-230.4,213.6l0.7,0.4c1.5,1,3.2,2.3,4.6,3.4
			c0.8,0.6,2.2,1.9,2.5,2.3l0.2,0.2l-1.1,0.3c-6.1,1.7-10.8,3.2-16.3,5.2c-0.6,0.2-1.1,0.4-1.2,0.4c-0.1,0-0.1,0.1,1.2-1.2
			c3.5-3.2,6.6-6.8,8.9-10.3L-230.4,213.6L-230.4,213.6z M-233.1,214.3c0,0-1.8,2.6-2.9,4c-1.3,1.7-3.6,4.6-5.2,6.5
			c-0.7,0.8-1.2,1.4-1.3,1.4c0,0-0.1-0.2-0.1-0.5c0-1.6-0.4-3.3-1.1-4.8c-0.3-0.6-0.4-0.8-0.3-0.8c0.3-0.2,4.1-2.4,6.6-3.7
			C-235.8,215.6-233.2,214.3-233.1,214.3L-233.1,214.3z M-249.9,218.4c0,0,0.3,0.2,0.7,0.3c0.8,0.5,1.6,1,2.3,1.5
			c0,0-0.3,0.3-0.8,0.6c-1.3,0.9-3.2,2.4-4.3,3.2c-1.2,0.9-1.2,1-1.1,0.8c0.9-1.3,1.3-2.1,1.8-3.1c0.4-0.9,0.8-1.9,1.1-2.8
			C-250.1,218.7-250,218.4-249.9,218.4L-249.9,218.4z M-245.5,221.9c0.1,0,0.1,0.1,0.5,0.6c0.8,1.1,1.3,2.6,1.5,3.9l0,0.3l-1.8,0.7
			c-3.3,1.3-6.3,2.5-8.3,3.4c-0.6,0.3-1.6,0.7-2.2,1.1c-0.7,0.3-1.2,0.6-1.2,0.6s0.4-0.3,0.9-0.7c4-2.9,7.4-6,10-9.2
			C-245.8,222.3-245.5,222-245.5,221.9L-245.5,221.9L-245.5,221.9z M-247.5,222.4c0.1,0.1-1.5,1.8-2.5,2.8c-2.6,2.6-5.1,4.7-8.2,6.7
			c-0.4,0.3-0.8,0.5-0.8,0.5c-0.1,0.1,0-0.1,1.4-1.6c0.9-0.9,1.5-1.7,2.3-2.7c0.5-0.7,0.6-0.7,1.3-1.3
			C-252.1,225.4-247.6,222.4-247.5,222.4z"/>
	</g>
	<path class="st3" d="M66.8,70h0.2v-1.3h0.4v-0.2h-1v0.2h0.4L66.8,70L66.8,70z M67.8,69c0-0.1,0-0.2,0-0.3c0,0.1,0,0.1,0,0.2
		l0.5,1.1h0.1l0.5-1.1c0,0,0-0.1,0-0.1c0,0.1,0,0.2,0,0.3v1h0.2v-1.5h-0.2l-0.5,1c0,0,0,0.1-0.1,0.2h0c0,0,0-0.1-0.1-0.2l-0.5-1
		h-0.2V70h0.2L67.8,69L67.8,69L67.8,69z"/>
</g>
</svg>
