<svg width="569" height="511" viewBox="0 0 569 511" fill="none" xmlns="http://www.w3.org/2000/svg">
<g opacity="0.25">
<path fill-rule="evenodd" clip-rule="evenodd" d="M-11.9375 -183.911C249.484 -278.974 569 -115.255 569 172.573C569 357.417 418.484 510.573 231 510.573C46.1563 510.573 -107 360.058 -107 172.573C-107 11.4951 9.18747 -123.177 159.703 -157.505C146.5 -162.786 67.2812 -186.552 -11.9375 -183.911ZM233.641 6.21384C141.219 6.21384 64.6406 82.792 64.6406 175.214C64.6406 267.636 141.219 344.214 233.641 344.214C326.063 344.214 402.641 267.636 402.641 175.214C402.641 80.1513 326.063 6.21384 233.641 6.21384Z" fill="#0087F5" fill-opacity="0.2"/>
<path fill-rule="evenodd" clip-rule="evenodd" d="M-11.9375 -183.909C246.844 -281.612 569 -115.253 569 172.575C569 357.419 418.484 510.575 231 510.575C46.1563 510.575 -107 360.059 -107 172.575C-77.9531 267.637 -9.29678 333.653 72.5626 362.7C191.391 404.95 299.656 360.059 368.313 278.2C407.922 230.669 429.047 177.856 434.328 125.044C439.609 74.8719 429.047 24.7001 407.922 -20.1905C339.266 -168.065 143.859 -212.956 -11.9375 -183.909Z" fill="url(#paint0_linear_304_5984)"/>
</g>
<defs>
<linearGradient id="paint0_linear_304_5984" x1="-10.7783" y1="24.8849" x2="438.751" y2="284.421" gradientUnits="userSpaceOnUse">
<stop stop-color="#0084FF" stop-opacity="0.5"/>
<stop offset="1" stop-color="#EFEFFD"/>
</linearGradient>
</defs>
</svg>
