<?xml version="1.0" encoding="utf-8"?>
<!-- Generator: Adobe Illustrator 24.2.0, SVG Export Plug-In . SVG Version: 6.00 Build 0)  -->
<svg version="1.1" id="Layer_1" xmlns="http://www.w3.org/2000/svg" xmlns:xlink="http://www.w3.org/1999/xlink" x="0px" y="0px"
	 viewBox="0 0 130 90" style="enable-background:new 0 0 130 90;" xml:space="preserve">
<style type="text/css">
	.st0{fill:#CC0000;}
</style>
<g>
	<path class="st0" d="M105.8,59.3v5h9.1c1.9,0,5-1.4,5.1-5.1v-2c0-3.3-2.7-5.1-5.1-5.1h-4.6v-2.3h9v-5h-8.7c-2.2,0-5.1,1.9-5.1,5.3
		v1.8c0,3.4,2.9,5.1,5.1,5.1c6.2,0-1.5,0,4.3,0v2.5 M57.1,58.1c0,0,4.9-0.5,4.9-6.7c0-6.3-5.9-6.9-5.9-6.9H45.6v19.8H51v-4.8
		l4.6,4.8h7.8L57.1,58.1L57.1,58.1z M55.2,54H51v-4.6h4.2c0,0,1.2,0.5,1.2,2.2S55.2,54,55.2,54L55.2,54z M75.2,44.6h-5.4
		c-3.9,0-5.1,3.5-5.1,5.1v14.5h5.4v-3.5h5v3.5h5.3V49.8C80.3,45.6,76.6,44.6,75.2,44.6L75.2,44.6z M75.2,55.3h-5.1v-4.8
		c0,0,0-1.1,1.6-1.1h1.9c1.5,0,1.5,1.1,1.5,1.1L75.2,55.3L75.2,55.3L75.2,55.3z M82.9,44.6h5.6v19.7h-5.6V44.6z M96.3,59.3V44.6
		h-5.6v19.7h13.2v-5C103.8,59.3,96.3,59.3,96.3,59.3z"/>
	<path class="st0" d="M12.1,64.3h22c0,0-4.2-19.2,9.7-26.9c3-1.5,12.6-7,28.4,4.7c0.5-0.5,0.9-0.7,0.9-0.7S58.7,27,42.6,28.6
		c-8.1,0.7-18,8.1-23.9,17.8S12.1,64.3,12.1,64.3z"/>
	<path class="st0" d="M12.1,64.3h22c0,0-4.2-19.2,9.7-26.9c3-1.5,12.6-7,28.4,4.7c0.5-0.5,0.9-0.7,0.9-0.7S58.7,27,42.6,28.6
		c-8.1,0.7-18,8.1-23.9,17.8S12.1,64.3,12.1,64.3z"/>
	<path class="st0" d="M12.1,64.3h22c0,0-4.2-19.2,9.7-26.9c3-1.5,12.6-7,28.4,4.7c0.5-0.5,0.9-0.7,0.9-0.7S58.7,27,42.6,28.6
		c-8.1,0.7-18,8.1-23.9,17.8S12.1,64.3,12.1,64.3z M57.7,30.1l0.1-1.9c-0.2-0.1-0.9-0.5-2.7-0.9L55,29.2
		C56,29.4,56.9,29.8,57.7,30.1z"/>
	<path class="st0" d="M55.2,36l-0.1,1.8c0.9,0,1.9,0.1,2.8,0.4l0.1-1.8C56.9,36.2,56,36.1,55.2,36z M44.9,27.3h0.2l-0.5-1.6
		c-0.8,0-1.8,0-2.7,0.1l0.6,1.6C43.2,27.3,44,27.3,44.9,27.3z M46.1,37.6l0.6,1.9c0.8-0.4,1.6-0.7,2.5-0.9l-0.6-1.9
		C47.7,36.9,46.8,37.3,46.1,37.6L46.1,37.6z M33.6,30.3l-1.3-1.9c-0.7,0.4-1.4,0.7-2.2,1.2l1.3,2C32.2,31.1,32.8,30.6,33.6,30.3
		L33.6,30.3z M39.2,42.8l1.3,2c0.5-0.7,1.1-1.3,1.6-2l-1.2-1.9C40.4,41.5,39.8,42.2,39.2,42.8L39.2,42.8z M35.3,51.7l2.2,1.8
		c0.1-1.1,0.4-2.2,0.6-3.3l-2-1.6C35.7,49.7,35.5,50.7,35.3,51.7L35.3,51.7z M23.1,38.6l-2-1.8c-0.7,0.7-1.4,1.4-2.1,2.1l2.1,1.9
		C21.8,40,22.4,39.3,23.1,38.6L23.1,38.6z M14.7,51l-3.2-1.2c-0.6,1.2-1.1,2.6-1.4,3.3l3.2,1.2C13.6,53.3,14.2,52,14.7,51z
		 M34.8,58.8c0,1.5,0.2,2.7,0.4,3.5l3.3,1.2c-0.2-1.1-0.5-2.3-0.7-3.6L34.8,58.8z"/>
</g>
</svg>
