<?xml version="1.0" encoding="utf-8"?>
<!-- Generator: Adobe Illustrator 24.2.0, SVG Export Plug-In . SVG Version: 6.00 Build 0)  -->
<svg version="1.1" id="Layer_1" xmlns="http://www.w3.org/2000/svg" xmlns:xlink="http://www.w3.org/1999/xlink" x="0px" y="0px"
	 viewBox="0 0 130 90" style="enable-background:new 0 0 130 90;" xml:space="preserve">
<style type="text/css">
	.st0{fill-rule:evenodd;clip-rule:evenodd;fill:#D33833;}
	.st1{fill:#EF3D3A;}
	.st2{fill:#231F20;}
	.st3{fill-rule:evenodd;clip-rule:evenodd;fill:#F0D6B7;}
	.st4{fill-rule:evenodd;clip-rule:evenodd;fill:#335061;}
	.st5{fill-rule:evenodd;clip-rule:evenodd;fill:#6D6B6D;}
	.st6{fill-rule:evenodd;clip-rule:evenodd;fill:#DCD9D8;}
	.st7{fill-rule:evenodd;clip-rule:evenodd;fill:#F7E4CD;}
	.st8{fill:#F7E4CD;}
	.st9{fill-rule:evenodd;clip-rule:evenodd;fill:#49728B;}
	.st10{fill-rule:evenodd;clip-rule:evenodd;fill:#FFFFFF;}
	.st11{fill:#FFFFFF;}
	.st12{fill:none;stroke:#D33833;stroke-width:0.3663;stroke-miterlimit:5;}
	.st13{fill-rule:evenodd;clip-rule:evenodd;fill:#EF3D3A;}
	.st14{fill-rule:evenodd;clip-rule:evenodd;fill:#231F20;}
	.st15{fill-rule:evenodd;clip-rule:evenodd;fill:#81B0C4;}
	.st16{fill-rule:evenodd;clip-rule:evenodd;fill:#1D1919;}
</style>
<g transform="matrix(1.25 0 0 -1.25 10 49.999783)">
	<path class="st0" d="M58,4.7c0-7.9-6.3-14.3-14-14.3S30-3.2,30,4.7s6.3,14.3,14,14.3S58,12.7,58,4.7"/>
	<path class="st1" d="M30.5,1.2c0,0-1,15,12.8,15.4l-1,1.6l-7.5-2.5l-2.1-2.5l-1.9-3.6l-1.1-4.2l0.3-2.8"/>
	<path class="st2" d="M34.4,14.5c-2.5-2.5-4-6-4-9.8s1.5-7.3,4-9.8s5.9-4.1,9.6-4.1s7.1,1.6,9.6,4.1s4,6,4,9.8s-1.5,7.3-4,9.8
		c-2.5,2.5-5.9,4.1-9.6,4.1C40.3,18.6,36.9,17,34.4,14.5z M33.8-5.8c-2.6,2.7-4.2,6.4-4.2,10.5s1.6,7.8,4.2,10.5S40,19.5,44,19.5
		s7.6-1.7,10.2-4.3s4.2-6.4,4.2-10.5s-1.6-7.8-4.2-10.5C51.6-8.5,48-10.1,44-10.1S36.4-8.5,33.8-5.8"/>
	<g>
		<path class="st3" d="M49.9,4.6l-2.1-0.3L44.9,4L43,4L41.2,4l-1.4,0.4l-1.2,1.3l-1,2.7l-0.2,0.6l-1.3,0.4l-0.7,1.2l-0.5,1.8
			l0.6,1.6l1.4,0.5l1.1-0.5l0.5-1.2l0.6,0.1l0.2,0.3l-0.2,1.2L39.1,16l0.3,2.1l0,1.2l1,1.6l1.7,1.2l3,1.3l3.3-0.5l2.9-2.1l1.3-2.1
			l0.9-1.6l0.2-3.8L53,10L51.8,7l-1.1-1.6"/>
		<path class="st4" d="M48.1-4.6l-7.6-0.3v-1.3l0.6-4.5l-0.3-0.4l-5.3,1.8L35-8.6l-0.5,6l-1.2,3.6L33,1.9l4.3,2.9l1.3,0.5L39.8,4
			l1-0.9L42,2.7l0.5-0.2l0.6-2.8l0.5-0.6l1.2,0.4L44-2.1l4.6-2.2L48.1-4.6"/>
		<path class="st5" d="M35.4,14.1l1.4,0.5l1.1-0.5l0.5-1.2l0.6,0.1l0.2,0.6L39,14.8l0.3,2.9L39,19.3l1,1.1l2.1,1.7l-0.6,0.8
			l-2.9-1.4l-1.2-1L36.6,19l-1.1-1.4l-0.3-1.7L35.4,14.1"/>
		<path class="st6" d="M37.6,19.1c0,0,0.8,2,4,2.9c3.2,1,0.2,0.7,0.2,0.7l-3.5-1.3L37,20L36.4,19L37.6,19.1 M36,14.4
			c0,0-1.1,3.7,3.2,4.3L39,19.3l-3-0.7l-0.8-2.8l0.2-1.8L36,14.4"/>
		<path class="st7" d="M37.7,9.5l0.7,0.7c0,0,0.3,0,0.4-0.4C38.8,9.4,39,6,41.3,4.2c0.2-0.2-1.7,0.3-1.7,0.3l-1.7,2.7 M47.6,10.5
			c0,0,0.1,1.6,0.6,1.5c0.4-0.1,0.4-0.6,0.4-0.6S47.5,10.7,47.6,10.5"/>
	</g>
	<path class="st8" d="M52,16.4c0,0-0.9-0.2-1-1s1-0.2,1.1-0.1 M45.5,16.3c0,0-1.2-0.2-1.2-0.9s1.3-0.7,1.7-0.4"/>
	<g>
		<path class="st7" d="M38.2,12.9c0,0-2,1.2-2.2,0.1s-0.7-2,0.3-3.3l-0.7,0.2L35,11.6l-0.2,1.6l1.2,1.3l1.4-0.1l0.8-0.6L38.2,12.9
			 M39.2,16.3c0,0,0.9,4.7,5.5,5.6c3.8,0.7,5.8-0.2,6.5-1c0,0-3.4,4-6.6,2.8c-3.2-1.2-5.5-3.5-5.5-4.9L39.2,16.3 M51.6,20.3
			c0,0-1.5,0.1-1.6-1.3c0,0,0-0.2,0.1-0.4c0,0,1.2,1.4,2,0.6 M44.8,18.4c0,0-0.3,2.1-2.1,0.9c-1.2-0.8-1.1-1.9-0.9-2.1
			c0.2-0.2,0.2-0.6,0.3-0.3c0.2,0.3,0.1,1.3,0.7,1.5C43.5,18.6,44.5,18.9,44.8,18.4"/>
		<path class="st9" d="M39.8,4l-5-2.2c0,0,2.1-8.3,1-10.8l-0.7,0.3L35-5.7l-1.4,6L33,1.9l5.2,3.5L39.8,4 M40.3-0.6L41-1.5v-3.2h-0.9
			l-0.1,2.5c0,0.3,0.1,1.2,0.1,1.2 M40.3-5.2l-2.4-0.1l0.7-0.5L40.3-6"/>
		<g>
			<path class="st4" d="M48.6-4.7l2,0.1L51-9.5l-2-0.3L48.6-4.7"/>
			<path class="st4" d="M49.1-4.7l3,0.2l1.2,3.3c0,0.2,1.1,4.5,1.1,4.5L52,5.8l-0.5,0.4l-1.3-1.3V0L49.1-4.7"/>
		</g>
		<path class="st9" d="M50.4-4.3l-1.9-0.4l0.3-1.5c0.7-0.3,1.9,0.5,1.9,0.5 M50.5,5.1l3.7-2.8l0.1,1.3l-2.8,2.6L50.5,5.1"/>
		<path class="st10" d="M42.2-15.2l-1.1,4.5l-0.6,3.3l-0.1,2.5l5,0.3h3.1l-0.3-5.6l0.5-4.3l-0.1-0.8l-4.1-0.3L42.2-15.2"/>
		<path class="st6" d="M47.9-4.6c0,0-0.3-5.6,0.5-9.5c0,0-1.6-1-4-1.3l4.5,0.2l0.5,0.3l-0.6,8.8l-0.2,1.9"/>
		<path class="st10" d="M51.1-9.1l2.1,0.6l4,0.2l0.6,1.8l-1.1,3.2l-1.2,0.2l-1.7-0.5l-1.6-0.8l-0.9,0.2l-0.7-0.3"/>
		<path class="st6" d="M51.1-8c0,0,1.4,0.6,1.6,0.6l-0.6,2.9l0.7,0.3l0.5-3.1l3.3-0.2c0,0,0.6,1.2,0.5,2.5l0.6-1.7l0.1-1l-0.9-1.3
			l-1-0.2l-1.6,0.1l-0.5,0.7l-1.9-0.3l-0.6-0.2"/>
	</g>
	<path class="st11" d="M49-4.2l-1.2,3l-1.2,1.8c0,0,0.3,0.7,0.6,0.7h1.2l1.2-0.4l-0.1-2L49-4.2"/>
	<path class="st6" d="M49.2-3.2c0,0-1.5,2.9-1.5,3.3c0,0,0.3,0.6,0.6,0.5S49.5,0,49.5,0v1l-1.8,0.4l-1.2-0.2l2.1-4.9L49-3.8"/>
	<path class="st11" d="M42.7,3.8L41.2,4l-1.4,0.4V4l0.7-0.7l2.1-1"/>
	<g>
		<path class="st6" d="M40.3,3.7c0,0,1.7-0.7,2.2-0.5l0.1-0.6L41,2.8l-0.9,0.6L40.3,3.7"/>
		<path class="st0" d="M51.1,1.1c-0.9,0-1.7,0.1-2.4,0.3c0,0.3,0,0.6,0,0.8c0.2,0.1,0.5,0.1,0.8,0.2c-0.3,0.1-0.6,0.2-0.9,0.1
			c0,0.2-0.1,0.3-0.2,0.5c0.5,0.2,1.7,1.4,2.4,1c0.3-0.2,0.5-1.3,0.5-1.8C51.4,1.8,51.3,1.3,51.1,1.1"/>
	</g>
	<path class="st12" d="M51.1,1.1c-0.9,0-1.7,0.1-2.4,0.3c0,0.3,0,0.6,0,0.8c0.2,0.1,0.5,0.1,0.8,0.2c-0.3,0.1-0.6,0.2-0.9,0.1
		c0,0.2-0.1,0.3-0.2,0.5c0.5,0.2,1.7,1.4,2.4,1c0.3-0.2,0.5-1.3,0.5-1.8C51.4,1.8,51.3,1.3,51.1,1.1L51.1,1.1z"/>
	<path class="st0" d="M46.8,2.6l0-0.2C46.5,2.2,46,2.2,45.7,2c0.4,0,0.8-0.1,1.1-0.3l0-0.5c-0.5-0.4-1-0.9-1.6-1.2
		c-0.3-0.2-1.3-0.6-1.6-0.5c-0.2,0-0.2,0.3-0.3,0.5c-0.1,0.4-0.5,1.1-0.5,1.8c0,0.8-0.1,2.2,0.8,2c0.7-0.1,1.6-0.5,2.1-0.8
		C46.1,2.9,46.3,2.6,46.8,2.6"/>
	<path class="st12" d="M46.8,2.6l0-0.2C46.5,2.2,46,2.2,45.7,2c0.4,0,0.8-0.1,1.1-0.3l0-0.5c-0.5-0.4-1-0.9-1.6-1.2
		c-0.3-0.2-1.3-0.6-1.6-0.5c-0.2,0-0.2,0.3-0.3,0.5c-0.1,0.4-0.5,1.1-0.5,1.8c0,0.8-0.1,2.2,0.8,2c0.7-0.1,1.6-0.5,2.1-0.8
		C46.1,2.9,46.3,2.6,46.8,2.6L46.8,2.6z"/>
	<path class="st0" d="M47.3,1.6c-0.1,0.5-0.2,0.6-0.1,1C48.4,3.4,48.6,1.2,47.3,1.6"/>
	<path class="st12" d="M47.3,1.6c-0.1,0.5-0.2,0.6-0.1,1C48.4,3.4,48.6,1.2,47.3,1.6z"/>
	<path class="st13" d="M49,1.2c0,0-0.4,0.5-0.1,0.7c0.3,0.2,0.5,0,0.7,0.3s0,0.4,0.1,0.7c0.1,0.3,0.3,0.4,0.6,0.4
		c0.3,0.1,1,0.2,1.1-0.1l-0.3,1l-0.6,0.2l-2-1.2l-0.1-0.6V1.5 M43.4-0.5L43.2,2c-0.1,1.2,0.3,1,1.4,1c0.2,0,1-0.2,1.1-0.3
		c0.3-0.6-0.5-0.5,0.3-0.9c0.7-0.4,1.9,0.2,1.6,1.1C47.5,3,46.8,2.9,46.6,3l-1.3,0.6C44.8,3.9,43.6,4.3,43,4c-1.4-1,0.1-3.4,0.6-4.4
		"/>
	<path class="st14" d="M44.8,18.4c-1.5,0.3-2.2-0.6-2.6-1.6c-0.4,0.1-0.2,0.6-0.1,0.9c0.3,0.7,1.3,1.7,2.2,1.5
		C44.6,19.2,45.1,18.9,44.8,18.4 M51.9,16.7L51.9,16.7c0.4-0.7,0.7-1.4,1.1-2c-0.3-0.7-2.1-1.2-2.1-0.1c0.4,0.2,1.1,0,1.4,0.3
		C52.2,15.5,51.9,16,51.9,16.7 M45.6,16.7c0.3-0.6,0.4-1.2,0.9-1.6c0.2-0.2,0.6-0.4,0.4-1c0-0.1-0.4-0.4-0.6-0.5
		c-0.7-0.2-2.3,0-1.8,0.8c0.6,0,1.3-0.4,1.8,0C46,15.1,45.4,16.1,45.6,16.7 M51.7,10.9c-1-0.7-2.2-1.4-3.9-1.2
		c-0.4,0.3-0.5,1-0.2,1.5c0.2-0.3,0.1-0.9,0.6-1c1-0.2,2.1,0.6,2.8,0.9c0.4,0.7,0,1-0.4,1.5c-0.8,1-1.9,2.2-1.8,3.6
		c0.3,0.2,0.4-0.4,0.4-0.5c0.4-1,1.5-2.2,2.2-3.1c0.2-0.2,0.5-0.4,0.5-0.5C52,11.6,51.6,11.2,51.7,10.9 M37.9,11.6
		c-0.3,0.2-0.4,1-0.8,1c-0.6,0-0.4-1.1-0.4-1.7c-0.4,0.3-0.4,1.4-0.2,1.9c-0.3,0.2-0.5-0.2-0.6-0.3C36.1,14.2,38.3,13.3,37.9,11.6
		 M52.3,10.2c-0.5-0.9-1.2-1.9-2.6-2c0,0.3-0.1,0.8,0,0.9C50.8,9.3,51.5,9.8,52.3,10.2 M45.5,9.6c0.9-0.5,2.6-0.5,3.8-0.5
		c0.1-0.3,0.1-0.6,0.1-0.9C47.8,8.1,45.9,8.5,45.5,9.6 M45.3,8.7c0.6-1.6,2.8-1.4,4.6-1.4c-0.1-0.2-0.3-0.4-0.5-0.5
		c-0.6-0.2-2.2-0.4-3,0c-0.5,0.3-0.8,0.9-1.1,1.3C45.2,8.3,44.5,8.7,45.3,8.7"/>
	<path class="st15" d="M51.6,0l-2.3-3.7c0.4,1.1,0.5,2.9,0.6,4.3C50.6,1,51.3,0.5,51.6,0"/>
	<path class="st14" d="M55.6-4.5c-0.8-0.2-1.4-1-2.2-0.9C53.8-4.8,54.6-4.6,55.6-4.5 M55.9-5.8C55.3-5.9,54.5-6,53.8-6
		C54.1-5.5,55.4-5.6,55.9-5.8 M56.2-7c-0.8,0-1.7,0-2.4,0.1C54.2-6.4,55.7-6.7,56.2-7"/>
	<path class="st6" d="M50.2-10c0.1-1,0.5-1.9,0.4-3c-0.4-0.1-0.7-0.3-1.2-0.3l-0.1,3.1C49.5-10.2,49.9-9.9,50.2-10"/>
	<path class="st3" d="M48.9,4c-0.4-0.2-0.7-0.5-1.1-0.8c-0.8,0-1.3,0.1-1.8,0.5c0,0,0.1,0,0.1,0.1C47,3.4,48.1,3.9,48.9,4"/>
	<path class="st15" d="M44.4-1.9c0.2,1,1.2,1.6,2,2.1c0.9-1.1,1.4-2.5,2-3.9C47-3.3,45.6-2.6,44.4-1.9"/>
	<path class="st14" d="M49.3-10.1c0-0.8,0.1-2.2,0.1-3.1c0.6,0,0.8,0.1,1.2,0.3c0,1-0.3,2-0.4,3C49.9-9.9,49.5-10.2,49.3-10.1
		L49.3-10.1z M40.5-5.3c0.4-3.4,0.9-6.3,1.9-9.3c2.2-0.7,4.8-0.7,6.7-0.1C48.8-13,49-11,48.7-9.2L48.5-5C46.1-4.5,42.8-4.9,40.5-5.3
		z M49-5c0-1.5,0.1-2.9,0.2-4.4l1.5,0.3c-0.2,1.4-0.1,3-0.5,4.2C49.8-4.9,49.4-4.9,49-5L49-5z M51.9-4.8c-0.3,0.1-0.6,0-0.8,0
		l0.5-3.8c0.4,0,0.6,0.2,0.9,0.2C52.5-7.2,52.4-5.7,51.9-4.8L51.9-4.8z M56.2-8.7c0.8,0.2,1.4,1.2,1.1,2.3c-0.2,0.7-0.4,2-0.7,2.5
		c-0.2,0.3-0.8,0.8-1.3,0.5c-0.8-0.5-2.1-0.6-2.7-1.2C52.8-5.7,52.9-7,53-8.2c1-0.1,2.2,0.3,3-0.1c-0.6-0.2-1.3-0.2-1.8-0.4
		C54.6-8.9,55.6-8.9,56.2-8.7L56.2-8.7z M48.4-3.7c-0.6,1.4-1.1,2.8-2,3.9c-0.8-0.6-1.8-1.1-2-2.1C45.6-2.6,47-3.3,48.4-3.7
		L48.4-3.7z M49.8,0.6c-0.1-1.4-0.2-3.2-0.6-4.3c0.9,1.1,1.6,2.4,2.3,3.7C51.3,0.5,50.6,1,49.8,0.6L49.8,0.6z M48.2,1.2
		c-0.3,0-0.6-0.4-1-0.2l-0.3-0.3c1-1.2,1.4-2.8,2.1-4.1c0.4,1.3,0.4,2.7,0.4,4.1C48.9,0.6,48.6,1.1,48.2,1.2L48.2,1.2z M47.2,2.6
		c0-0.4,0.1-0.5,0.1-1C48.6,1.2,48.4,3.4,47.2,2.6z M45.7,3c-0.6,0.3-1.4,0.6-2.1,0.8c-0.9,0.2-0.8-1.2-0.8-2c0-0.7,0.4-1.3,0.5-1.8
		c0.1-0.2,0.1-0.4,0.3-0.5c0.3-0.1,1.3,0.3,1.6,0.5c0.6,0.3,1.1,0.9,1.6,1.2l0,0.5C46.5,1.9,46.1,2,45.7,2c0.3,0.2,0.8,0.2,1.1,0.3
		l0,0.2C46.3,2.6,46.1,2.8,45.7,3L45.7,3z M40.4,4c-0.5-0.5,1.3-1.1,1.9-1.1c0,0.3,0.2,0.6,0.1,0.8C41.7,3.8,40.9,3.7,40.4,4L40.4,4
		z M46.1,3.8C46.1,3.7,46,3.8,46.1,3.8c0.5-0.5,1-0.6,1.8-0.6L48.9,4C48.1,3.9,47,3.4,46.1,3.8L46.1,3.8z M51.3,2.2
		c0,0.5-0.2,1.6-0.5,1.8c-0.7,0.4-1.9-0.8-2.4-1c0.1-0.2,0.1-0.3,0.2-0.5c0.3,0.1,0.6,0,0.9-0.1c-0.3,0-0.6,0-0.8-0.2
		c-0.1-0.2,0-0.5,0-0.8c0.7-0.2,1.5-0.3,2.4-0.3C51.3,1.3,51.4,1.8,51.3,2.2L51.3,2.2z M39.6,3.6c-0.1,0.1-1.1,1.4-1.3,1.3
		c-1.8-0.7-3.4-1.9-4.9-3.1c1.4-3,2-6.8,2.1-10.4c1.6-0.8,3-1.9,5.3-2l-0.6,5.1c-0.6,0.2-1.3,0-1.9,0.1c0,0.6,0.8,0.3,0.9,0.7
		c0.1,0.3-0.4,0.3-0.3,0.8c0.4-0.1,0.6-0.5,1-0.6c0.4,0.9,0,2.4,0.1,3.1c0,0.1,0.1,0.8,0.4,0.6c0.3-0.1,0-1.6,0-2.3
		c0-0.6-0.1-1.2,0.2-1.6c2.1,0.3,4.3,0.5,6.6,0.5c-0.5,0.2-1.1,0.4-1.8,0.8c-0.4,0.2-1.5,0.6-1.6,1c-0.2,0.5,0.4,0.8,0.5,1.3
		c-1.1-0.6-1.3,0.6-1.5,1.4c-0.2,0.7-0.4,1.3-0.4,1.7C41.4,2.5,40.4,3,39.6,3.6L39.6,3.6z M50.4,4.7c1.5,0.7,1.7-2.7,1.2-3.8
		c0.1-0.3,0.4-0.5,0.5-0.7l-2.6-4.3c0.6,0.4,1.5,0.1,2.3,0.4C52-3.7,52.2-3,52.4-2.5c0.6,1.4,1.2,3.1,1.4,4.4
		C53.9,2.1,54.1,2.8,54,3c-0.1,0.5-0.7,0.8-1,1.1l-1.6,1.5C51.1,5.3,50.6,5,50.4,4.7L50.4,4.7z M36.2,17.9c-0.7-0.8-0.5-2.2-0.5-3.3
		c1.3,0.8,3-0.1,3-1.4c0.6,0,0.2,0.8,0.1,1.2c-0.4,1.6,0.6,3.3,0,4.7C37.8,19,36.9,18.6,36.2,17.9L36.2,17.9z M41.3,22.4
		c-1.6-0.5-3.6-1.6-4.3-3.1c0.5,0.1,0.9,0.3,1.4,0.4c0.2,0,0.4-0.1,0.7,0c0.4,0.1,0.8,1.1,1.1,1.4c0.3,0.4,0.7,0.5,1,0.8
		c0.2,0.1,0.4,0.1,0.4,0.3C41.4,22.3,41.4,22.4,41.3,22.4L41.3,22.4z M49.6,21.9c-1.7,0.9-4.5,1.6-6.2,0.8c-1.4-0.7-3.3-1.9-4-3.4
		c0.6-1.4-0.2-2.8-0.2-4.2c0-0.8,0.4-1.5,0.4-2.3c-0.2-0.3-0.9-0.4-1.3-0.4c-0.1,0.7-0.4,1.6-1.2,1.7c-1.1,0.1-1.9-0.8-1.9-1.7
		c-0.1-1.1,0.9-2.9,2.1-2.8c0.5,0,0.6,0.5,1.2,0.5c0.3-0.6-0.5-0.8-0.5-1.2c0-0.1,0.1-0.5,0.1-0.7c0.2-1,0.8-2.2,1.3-3
		c0.7-0.9,1.9-1.1,3.3-1.2c0.2,0.5,1.2,0.5,1.7,0.3c-0.7,0.3-1.4,1-1.9,1.6c-0.6,0.7-1.3,1.4-1.3,2.3c1.2-1.6,2.2-3.1,4.3-3.8
		C47.1,4,49,4.8,50.2,5.7C50.7,6,51,6.6,51.4,7.1c1.4,2,2,4.8,1.9,7.6c-0.1,1.1-0.1,2.3-0.4,3c-0.4,0.8-1.8,1.5-2.5,0.8
		c-0.1,0.8,0.7,1.3,1.6,1C51.3,20.4,50.6,21.4,49.6,21.9L49.6,21.9z M52.7-3.6c1.3,0.6,3.7,1.7,4.5,0C57.5-4.3,57.9-5.4,58-6
		c0.2-0.9-0.2-2.9-1.2-3.2C56-9.5,55-9.5,54-9.3c-0.1,0.1-0.3,0.3-0.3,0.5c-0.7,0-1.4,0-2-0.3c0.1-0.5-0.3-0.6-0.7-0.7
		c-0.3-1,0.5-2.3,0.3-3.2c-0.1-0.7-0.9-0.8-1.5-0.9c0-0.4,0-0.7,0.1-1c-0.1-0.5-0.7-0.8-1.3-0.8c-1.9-0.2-4.7-0.3-6.6,0.3
		c-0.5,1.2-0.9,2.8-1.3,4.2c-1.8-0.2-3.2,0.8-4.5,1.4c-0.5,0.2-1.1,0.3-1.3,0.7c-0.2,0.4-0.1,1-0.1,1.7c-0.1,1.7-0.2,3.3-0.6,5
		c-0.2,0.8-0.5,1.4-0.8,2.2c-0.2,0.7-0.6,1.5-0.7,2.2c-0.2,1,0.8,1.1,1.4,1.5c0.9,0.7,1.7,1,2.7,1.7C37,5.2,37.9,5.6,38,5.8
		c0.2,0.4-0.4,1-0.5,1.3c-0.2,0.5-0.4,1-0.4,1.5c-0.9,0.1-1.5,0.6-1.9,1.2c-0.7,0.9-1.1,2.7-0.5,4c0,0.1,0.3,0.3,0.3,0.5
		c0.1,0.3-0.1,0.7-0.1,1.1c-0.1,1.7,0.3,3.2,1.5,3.7c0.5,1.9,2.2,2.5,3.8,3.5c0.6,0.4,1.3,0.6,1.9,0.8c2.4,0.9,6.2,0.7,8.2-0.8
		c0.9-0.6,2.2-2,2.7-3c1.3-2.6,1.2-7,0.3-10.2c-0.1-0.4-0.3-1.1-0.5-1.6C52.5,7.5,52,6.8,52,6.5c0.1-0.3,1.2-1.2,1.5-1.4
		c0.4-0.4,1.3-1,1.4-1.5c0.1-0.6-0.3-1.4-0.4-1.9L52.7-3.6"/>
	<path class="st7" d="M44,9.2c0.1,0.1,0.5,0.2,1,0c0,0-0.6-0.1-0.6-1.2l-0.3,0.1C44.2,8.1,43.9,9,44,9.2"/>
	<path class="st16" d="M48.7,0c0-0.2-0.1-0.3-0.3-0.3c-0.2,0-0.3,0.1-0.3,0.3s0.1,0.3,0.3,0.3C48.6,0.3,48.7,0.2,48.7,0 M49-1.3
		c0-0.2-0.1-0.3-0.3-0.3c-0.2,0-0.3,0.1-0.3,0.3S48.6-1,48.7-1C48.9-1,49-1.2,49-1.3"/>
</g>
</svg>
