<?xml version="1.0" encoding="utf-8"?>
<!-- Generator: Adobe Illustrator 24.2.0, SVG Export Plug-In . SVG Version: 6.00 Build 0)  -->
<svg version="1.1" id="Layer_1" xmlns="http://www.w3.org/2000/svg" xmlns:xlink="http://www.w3.org/1999/xlink" x="0px" y="0px"
	 viewBox="0 0 130 90" style="enable-background:new 0 0 130 90;" xml:space="preserve">
<style type="text/css">
	.st0{fill:#FF3D57;}
	.st1{fill:#FFCB00;}
	.st2{fill:#00D647;}
</style>
<g transform="matrix(.918418 0 0 .918418 3.800969 2.447472)">
	<g transform="matrix(2.051626 0 0 2.051626 -18.029941 -31.126435)">
		<path class="st0" d="M26.2,49.7c-2.7,0-4.9-2.2-4.9-4.9c0-0.9,0.3-1.8,0.7-2.6l8.8-14c1.4-2.3,4.4-3,6.7-1.5
			c2.3,1.4,3,4.4,1.5,6.7l-8.8,14C29.4,48.8,27.9,49.7,26.2,49.7z"/>
		<path class="st1" d="M41.3,49.7c-2.7,0-4.9-2.2-4.9-4.9c0-0.9,0.3-1.8,0.7-2.6l8.8-14c1.3-2.3,4.3-3.1,6.6-1.8
			c2.3,1.3,3.1,4.3,1.8,6.6c-0.1,0.1-0.1,0.2-0.2,0.3l-8.7,14C44.5,48.8,42.9,49.7,41.3,49.7L41.3,49.7z"/>
		<ellipse class="st2" cx="56.3" cy="44.9" rx="4.9" ry="4.7"/>
	</g>
</g>
</svg>
